<svg xmlns="http://www.w3.org/2000/svg" xml:space="preserve" style="fill-rule:evenodd;clip-rule:evenodd;stroke-linejoin:round;stroke-miterlimit:2" viewBox="0 0 24 24"><path d="M5305.37 1153.82 5151.56 1000l153.81-153.815 37.3 37.291L5226.14 1000l116.53 116.52zm341.31 0-37.29-37.3L5725.91 1000l-116.52-116.524 37.29-37.291L5800.5 1000zm-211.57 46.61-50.42-15.48 118.35-385.381 50.41 15.483z" style="fill-rule:nonzero" transform="translate(-122.392 -12.55)scale(.02454)"/><path d="M5877.85 511.451h-803.64c-47.9 0-86.73 38.831-86.73 86.732v803.637c0 47.9 38.83 86.73 86.73 86.73h803.64c47.9 0 86.73-38.83 86.73-86.73V598.183c0-47.901-38.83-86.732-86.73-86.732m0 52.673c18.78 0 34.06 15.279 34.06 34.059v803.637c0 18.78-15.28 34.06-34.06 34.06h-803.64c-18.78 0-34.06-15.28-34.06-34.06V598.183c0-18.78 15.28-34.059 34.06-34.059z" style="fill-rule:nonzero" transform="translate(-122.392 -12.55)scale(.02454)"/></svg>